<?xml version="1.0" encoding="utf-8"?>
<!-- Generator: Adobe Illustrator 19.2.1, SVG Export Plug-In . SVG Version: 6.00 Build 0)  -->
<svg version="1.1" id="logo_artwork_masters" xmlns="http://www.w3.org/2000/svg" xmlns:xlink="http://www.w3.org/1999/xlink"
	 x="0px" y="0px" viewBox="0 0 396.9 113.4" style="enable-background:new 0 0 396.9 113.4;" xml:space="preserve">
<g>
	<g>
		<g>
			<path d="M0,103.9c0,5.2,4.2,9.4,9.4,9.4c5.2,0,9.4-4.2,9.4-9.4V9.4c0-5.2-4.2-9.4-9.4-9.4C4.2,0,0,4.2,0,9.4V103.9z"/>
		</g>
		<g>
			<path d="M28.4,82.2c0,4.7,3.8,8.5,8.5,8.5c4.7,0,8.5-3.8,8.5-8.5v-51c0-4.7-3.8-8.5-8.5-8.5c-4.7,0-8.5,3.8-8.5,8.5V82.2z"/>
		</g>
		<g>
			<path d="M54.9,64.3c0,4.2,3.4,7.6,7.6,7.6s7.6-3.4,7.6-7.6V49.1c0-4.2-3.4-7.6-7.6-7.6s-7.6,3.4-7.6,7.6V64.3z"/>
		</g>
	</g>
	<g>
		<path d="M145.5,79.6c0-2.5,0-5.9,0.1-7.9c-2.4,4.8-7.7,8.9-15.6,8.9c-12.1,0-19.3-8.8-19.3-22.3c0-13.9,7.9-22.5,19.7-22.5
			c7.8,0,12.5,4.3,15,8.6c0,0-0.1-6.6-0.1-8.4V21.6h4.5v58H145.5z M115.4,58.2c0,11.2,5.7,18.8,15.2,18.8c9.7,0,15-7.6,15-18.8
			c0-11.6-5.3-18.7-15-18.7C121,39.5,115.4,46.6,115.4,58.2z"/>
		<polygon points="165.3,37 165.3,79.6 160.9,79.6 160.9,55.2 160.9,37 		"/>
		<path d="M177.9,66.7c1.3,6.6,5.1,10.3,12.7,10.3c7.5,0,11.5-3.6,11.5-8.4c0-4.8-3.8-6.4-10.5-8.4l-4.1-1.2
			c-7.7-2.3-12.7-4.8-12.7-11.8c0-7.1,6.5-11.4,15.4-11.4c8.9,0,14.7,4.6,15.6,12.3h-4.4c-0.8-4.9-4.4-8.8-11.3-8.8
			c-7,0-10.9,2.9-10.9,7.4c0,4.4,2.8,6.2,10.5,8.5l3.9,1.2c7.5,2.2,13,4.5,13,11.3c0,7.7-6.8,12.8-16.1,12.8
			c-10.3,0-15.8-4.7-17.4-13.9H177.9z"/>
		<path d="M247.9,73.7c0-1.6,0-4.1,0.1-5.4h-0.2c-2.1,4.5-7.3,9.1-15.4,9.1c-11.8,0-19.1-8.4-19.1-20.4c0-12.8,8-21.1,19.5-21.1
			c8.1,0,12.8,4.3,15.2,8.6V37h4.2v34.4c0,6.7-1.1,12.2-3.6,16.2c-2.9,4.5-7.8,7.4-15.2,7.4c-10.8,0-16.5-6.4-18.2-14h4.6
			c1.1,4.1,4,10.4,13.9,10.4C243.9,91.4,247.9,83.4,247.9,73.7z M248.1,56.5c0-9.8-5.6-17-15.2-17c-9.3,0-15,7.4-15,17.4
			c0,9.6,5.4,17.1,14.9,17.1C241.6,73.9,248.1,67.4,248.1,56.5z"/>
		<path d="M293.8,73.1c0,2.2,0,4.3,0.1,6.5h-4.5v-6.9c-1.9,3.6-6.1,8-14,8c-9.8,0-14.5-5.8-14.5-17.1V37h4.5v25.5
			c0,10.2,4.4,14.4,11.5,14.4c7.5,0,12.5-6.2,12.5-13.2V37h4.5V73.1z"/>
		<path d="M360.4,58.9c0.3,11.3,6.7,18.2,16.5,18.2c9.6,0,13.4-6,14.8-9.6h4.3c-2.5,7.5-9.2,13.2-19.3,13.2
			c-13.1,0-20.8-8.9-20.8-22.4c0-13.1,8.1-22.4,21.1-22.4c14.2,0,19.8,10.9,19.8,21.4c0,0.6-0.1,1.5-0.1,1.5H360.4z M376.9,39.5
			c-9.5,0-15.6,6.3-16.3,15.7h31.7C392,45.9,386.1,39.5,376.9,39.5z"/>
		<polygon points="308.3,37 308.3,79.6 303.8,79.6 303.8,55.2 303.8,37 		"/>
		<path d="M320.9,66.7c1.3,6.6,5.1,10.3,12.7,10.3c7.5,0,11.5-3.6,11.5-8.4c0-4.8-3.8-6.4-10.5-8.4l-4.1-1.2
			c-7.7-2.3-12.7-4.8-12.7-11.8c0-7.1,6.5-11.4,15.4-11.4c8.9,0,14.7,4.6,15.6,12.3h-4.4c-0.8-4.9-4.4-8.8-11.3-8.8
			c-7,0-10.9,2.9-10.9,7.4c0,4.4,2.8,6.2,10.5,8.5l3.9,1.2c7.5,2.2,13,4.5,13,11.3c0,7.7-6.8,12.8-16.1,12.8
			c-10.3,0-15.8-4.7-17.4-13.9H320.9z"/>
	</g>
</g>
</svg>
